<svg width="46" height="46" viewBox="0 0 46 46" fill="none" xmlns="http://www.w3.org/2000/svg">
<path d="M0 23C0 35.7025 10.2975 46 23 46C35.7025 46 46 35.7025 46 23C46 10.2975 35.7025 0 23 0C10.2975 0 0 10.2975 0 23Z" fill="#25D366" fill-opacity="0.2"/>
<path d="M0 23C0 35.7025 10.2975 46 23 46C35.7025 46 46 35.7025 46 23C46 10.2975 35.7025 0 23 0C10.2975 0 0 10.2975 0 23Z" fill="#25D366"/>
<path d="M0 23C0 35.7025 10.2975 46 23 46C35.7025 46 46 35.7025 46 23C46 10.2975 35.7025 0 23 0C10.2975 0 0 10.2975 0 23Z" fill="#25D366" fill-opacity="0.5"/>
<path fill-rule="evenodd" clip-rule="evenodd" d="M31.05 14.8063C28.8938 12.65 26.0188 11.5 23 11.5C16.675 11.5 11.5 16.675 11.5 23C11.5 25.0125 12.075 27.025 13.0813 28.75L11.5 34.5L17.5375 32.9187C19.2625 33.7812 21.1313 34.3562 23 34.3562C29.325 34.3562 34.5 29.1812 34.5 22.8562C34.5 19.8375 33.2063 16.9625 31.05 14.8063ZM23 32.4875C21.275 32.4875 19.55 32.0563 18.1125 31.1938L17.825 31.05L14.2312 32.0562L15.2375 28.6062L14.95 28.175C13.9437 26.5938 13.5125 24.8688 13.5125 23.1438C13.5125 17.9688 17.825 13.6562 23 13.6562C25.5875 13.6562 27.8875 14.6625 29.7563 16.3875C31.625 18.2562 32.4875 20.5563 32.4875 23.1438C32.4875 28.175 28.3188 32.4875 23 32.4875ZM28.175 25.3C27.8875 25.1563 26.45 24.4375 26.1625 24.4375C25.875 24.2937 25.7312 24.2938 25.5875 24.5813C25.4437 24.8688 24.8688 25.4437 24.725 25.7312C24.5813 25.875 24.4375 25.875 24.15 25.875C23.8625 25.7312 23 25.4438 21.85 24.4375C20.9875 23.7188 20.4125 22.7125 20.2688 22.425C20.125 22.1375 20.2688 21.9937 20.4125 21.85C20.5563 21.7063 20.7 21.5625 20.8438 21.4187C20.9875 21.275 20.9875 21.1313 21.1313 20.9875C21.275 20.8438 21.1313 20.7 21.1313 20.5563C21.1313 20.4125 20.5563 18.975 20.2688 18.4C20.125 17.9688 19.8375 17.9688 19.6938 17.9688C19.55 17.9688 19.4062 17.9688 19.1187 17.9688C18.975 17.9688 18.6875 17.9687 18.4 18.2562C18.1125 18.5437 17.3938 19.2625 17.3938 20.7C17.3938 22.1375 18.4 23.4312 18.5437 23.7188C18.6875 23.8625 20.5562 26.8813 23.4312 28.0312C25.875 29.0375 26.3063 28.75 26.8813 28.75C27.4563 28.75 28.6063 28.0312 28.75 27.4563C29.0375 26.7375 29.0375 26.1625 28.8938 26.1625C28.75 25.4438 28.4625 25.4438 28.175 25.3Z" fill="white"/>
</svg>
