<svg width="223" height="67" viewBox="0 0 223 67" fill="none" xmlns="http://www.w3.org/2000/svg">
<path d="M215.066 66.8241H7.81161C3.50523 66.8241 0 63.3089 0 59.0058V8.55665C0 4.25193 3.50523 0.75 7.81161 0.75H215.066C219.371 0.75 223 4.25193 223 8.55665V59.0058C223 63.3089 219.371 66.8241 215.066 66.8241Z" fill="#A6A6A6"/>
<path d="M221.401 59.0075C221.401 62.5028 218.57 65.3341 215.068 65.3341H7.81161C4.31134 65.3341 1.47015 62.5028 1.47015 59.0075V8.555C1.47015 5.06134 4.31134 2.22015 7.81161 2.22015H215.066C218.57 2.22015 221.399 5.06134 221.399 8.555L221.401 59.0075Z" fill="black"/>
<path d="M49.767 33.4302C49.7191 28.1063 54.1262 25.5162 54.3277 25.3956C51.8318 21.7566 47.9631 21.2594 46.6037 21.2197C43.3545 20.8778 40.2028 23.164 38.5476 23.164C36.8594 23.164 34.3106 21.2528 31.5636 21.3089C28.0286 21.3634 24.7216 23.4101 22.9079 26.5883C19.1648 33.0685 21.9564 42.5914 25.5426 47.8294C27.3365 50.3947 29.4327 53.259 32.1764 53.1583C34.8607 53.0476 35.8633 51.447 39.1026 51.447C42.3122 51.447 43.2537 53.1583 46.052 53.0939C48.9328 53.0476 50.7465 50.517 52.4777 47.9285C54.5507 44.9882 55.3833 42.0925 55.4163 41.9439C55.3486 41.9207 49.8215 39.8113 49.767 33.4302Z" fill="white"/>
<path d="M44.481 17.774C45.9248 15.9685 46.9126 13.5122 46.6384 11.0195C44.5488 11.112 41.9355 12.4649 40.4307 14.2307C39.0993 15.7868 37.91 18.3372 38.2172 20.7357C40.5645 20.9108 42.9746 19.5513 44.481 17.774Z" fill="white"/>
<path d="M88.6136 52.7899H84.8622L82.8073 46.3328H75.6647L73.7073 52.7899H70.055L77.1316 30.8071H81.5024L88.6136 52.7899ZM82.1879 43.6238L80.3295 37.8836C80.133 37.2972 79.7646 35.9162 79.2211 33.7424H79.1551C78.9387 34.6774 78.5901 36.0583 78.1111 37.8836L76.2858 43.6238H82.1879Z" fill="white"/>
<path d="M106.812 44.6694C106.812 47.3652 106.084 49.4961 104.627 51.0604C103.322 52.453 101.701 53.1484 99.7669 53.1484C97.679 53.1484 96.1791 52.3984 95.2656 50.8986H95.1995V59.2487H91.6778V42.157C91.6778 40.4622 91.6332 38.7228 91.5473 36.9388H94.6445L94.8411 39.4512H94.9072C96.0816 37.5582 97.864 36.6133 100.256 36.6133C102.126 36.6133 103.687 37.3517 104.936 38.8301C106.188 40.3102 106.812 42.2561 106.812 44.6694ZM103.224 44.7983C103.224 43.2554 102.877 41.9835 102.18 40.9825C101.419 39.9385 100.396 39.4165 99.1144 39.4165C98.2456 39.4165 97.456 39.7073 96.7506 40.2805C96.0436 40.8586 95.5811 41.6135 95.3647 42.5484C95.2557 42.9845 95.2012 43.3413 95.2012 43.6222V46.2651C95.2012 47.4181 95.5547 48.391 96.2617 49.1856C96.9687 49.9801 97.8871 50.3766 99.017 50.3766C100.343 50.3766 101.376 49.8645 102.114 48.8437C102.854 47.8212 103.224 46.4732 103.224 44.7983Z" fill="white"/>
<path d="M125.044 44.6694C125.044 47.3652 124.315 49.4961 122.856 51.0604C121.553 52.453 119.933 53.1484 117.998 53.1484C115.91 53.1484 114.411 52.3984 113.499 50.8986H113.433V59.2487H109.911V42.157C109.911 40.4622 109.866 38.7228 109.78 36.9388H112.878L113.074 39.4512H113.14C114.313 37.5582 116.095 36.6133 118.489 36.6133C120.357 36.6133 121.918 37.3517 123.17 38.8301C124.417 40.3102 125.044 42.2561 125.044 44.6694ZM121.456 44.7983C121.456 43.2554 121.107 41.9835 120.41 40.9825C119.649 39.9385 118.629 39.4165 117.346 39.4165C116.475 39.4165 115.687 39.7073 114.98 40.2805C114.273 40.8586 113.813 41.6135 113.596 42.5484C113.489 42.9845 113.433 43.3413 113.433 43.6222V46.2651C113.433 47.4181 113.786 48.391 114.49 49.1856C115.197 49.9785 116.115 50.3766 117.248 50.3766C118.575 50.3766 119.607 49.8645 120.346 48.8437C121.086 47.8212 121.456 46.4732 121.456 44.7983Z" fill="white"/>
<path d="M145.427 46.6252C145.427 48.4951 144.778 50.0165 143.475 51.1909C142.043 52.4744 140.049 53.1153 137.487 53.1153C135.121 53.1153 133.225 52.6594 131.79 51.746L132.606 48.8106C134.152 49.7456 135.848 50.2147 137.697 50.2147C139.023 50.2147 140.056 49.9141 140.797 49.3161C141.536 48.7181 141.904 47.9153 141.904 46.9143C141.904 46.0223 141.6 45.2707 140.99 44.6612C140.384 44.0516 139.372 43.4851 137.958 42.9614C134.109 41.526 132.186 39.4232 132.186 36.658C132.186 34.8508 132.86 33.3691 134.21 32.2161C135.554 31.0615 137.348 30.485 139.591 30.485C141.592 30.485 143.254 30.8335 144.58 31.529L143.7 34.3999C142.461 33.7259 141.06 33.3889 139.492 33.3889C138.253 33.3889 137.285 33.6945 136.592 34.3024C136.005 34.8459 135.711 35.5083 135.711 36.2929C135.711 37.1618 136.046 37.8803 136.72 38.4453C137.307 38.9672 138.372 39.5322 139.918 40.1417C141.81 40.9032 143.199 41.7936 144.093 42.8144C144.983 43.8319 145.427 45.1055 145.427 46.6252Z" fill="white"/>
<path d="M157.071 39.5817H153.189V47.2777C153.189 49.2352 153.873 50.2131 155.244 50.2131C155.874 50.2131 156.396 50.1585 156.809 50.0495L156.906 52.7239C156.212 52.9832 155.299 53.1137 154.167 53.1137C152.776 53.1137 151.69 52.6892 150.905 51.8418C150.124 50.9927 149.73 49.5688 149.73 47.5684V39.5784H147.418V36.9355H149.73V34.0332L153.189 32.9892V36.9355H157.071V39.5817Z" fill="white"/>
<path d="M174.586 44.7338C174.586 47.1703 173.889 49.1707 172.498 50.735C171.039 52.3456 169.103 53.1484 166.69 53.1484C164.364 53.1484 162.512 52.377 161.132 50.8341C159.751 49.2913 159.06 47.3438 159.06 44.9965C159.06 42.5402 159.77 40.5282 161.196 38.9639C162.618 37.398 164.538 36.615 166.951 36.615C169.277 36.615 171.148 37.3864 172.561 38.9309C173.912 40.4291 174.586 42.3634 174.586 44.7338ZM170.932 44.8478C170.932 43.3859 170.62 42.1322 169.987 41.0866C169.249 39.8212 168.193 39.1902 166.825 39.1902C165.41 39.1902 164.334 39.8229 163.596 41.0866C162.963 42.1338 162.651 43.4074 162.651 44.9139C162.651 46.3758 162.963 47.6295 163.596 48.6735C164.358 49.9388 165.421 50.5698 166.794 50.5698C168.139 50.5698 169.194 49.9256 169.956 48.6405C170.605 47.575 170.932 46.3081 170.932 44.8478Z" fill="white"/>
<path d="M186.033 40.036C185.685 39.9716 185.313 39.9385 184.923 39.9385C183.684 39.9385 182.726 40.406 182.052 41.3426C181.466 42.1685 181.172 43.2125 181.172 44.4729V52.7899H177.652L177.685 41.9307C177.685 40.1037 177.64 38.4403 177.553 36.9404H180.62L180.749 39.9732H180.846C181.218 38.9309 181.805 38.0917 182.607 37.4624C183.392 36.8958 184.239 36.6133 185.153 36.6133C185.478 36.6133 185.772 36.6365 186.033 36.6778V40.036Z" fill="white"/>
<path d="M201.784 44.1144C201.784 44.7454 201.742 45.2773 201.655 45.7118H191.09C191.131 47.2777 191.641 48.4753 192.622 49.3012C193.513 50.0396 194.664 50.4096 196.078 50.4096C197.642 50.4096 199.07 50.1602 200.353 49.6597L200.905 52.1044C199.405 52.7586 197.634 53.084 195.591 53.084C193.133 53.084 191.204 52.3605 189.799 50.9151C188.399 49.4697 187.697 47.5288 187.697 45.094C187.697 42.7037 188.349 40.7132 189.656 39.1258C191.023 37.431 192.872 36.5836 195.198 36.5836C197.482 36.5836 199.212 37.431 200.386 39.1258C201.316 40.4721 201.784 42.1371 201.784 44.1144ZM198.425 43.2009C198.449 42.157 198.219 41.2551 197.742 40.4936C197.132 39.514 196.195 39.0251 194.935 39.0251C193.784 39.0251 192.847 39.5024 192.132 40.4605C191.545 41.222 191.197 42.1355 191.09 43.1993H198.425V43.2009Z" fill="white"/>
<path d="M81.0233 17.2834C81.0233 19.2276 80.4402 20.6912 79.2757 21.674C78.197 22.5809 76.6641 23.0351 74.6786 23.0351C73.6941 23.0351 72.8516 22.9922 72.1463 22.9063V12.2832C73.0664 12.1346 74.0575 12.0586 75.1279 12.0586C77.0192 12.0586 78.4448 12.4699 79.4062 13.2925C80.4832 14.2225 81.0233 15.5523 81.0233 17.2834ZM79.198 17.3313C79.198 16.0709 78.8644 15.1046 78.197 14.4307C77.5297 13.7583 76.5551 13.4214 75.2716 13.4214C74.7265 13.4214 74.2623 13.4577 73.8774 13.5337V21.6096C74.0905 21.6426 74.4803 21.6575 75.0469 21.6575C76.3717 21.6575 77.3942 21.2891 78.1144 20.5524C78.8346 19.8157 79.198 18.742 79.198 17.3313Z" fill="white"/>
<path d="M90.7016 18.9815C90.7016 20.1791 90.3596 21.1603 89.6758 21.93C88.9588 22.7213 88.009 23.1161 86.823 23.1161C85.6799 23.1161 84.7698 22.7378 84.0908 21.9779C83.4136 21.2197 83.075 20.2633 83.075 19.1103C83.075 17.9045 83.4235 16.915 84.1239 16.1469C84.8243 15.3788 85.7658 14.9939 86.9518 14.9939C88.0949 14.9939 89.0134 15.3722 89.7088 16.1304C90.3695 16.8671 90.7016 17.8186 90.7016 18.9815ZM88.906 19.0376C88.906 18.3191 88.7507 17.7029 88.4418 17.1892C88.0784 16.5681 87.5614 16.2576 86.8891 16.2576C86.1937 16.2576 85.6651 16.5681 85.3016 17.1892C84.9911 17.7029 84.8375 18.329 84.8375 19.069C84.8375 19.7876 84.9928 20.4037 85.3016 20.9174C85.6766 21.5385 86.1986 21.8491 86.8726 21.8491C87.5333 21.8491 88.052 21.5336 88.4253 20.9009C88.7458 20.3773 88.906 19.7562 88.906 19.0376Z" fill="white"/>
<path d="M103.678 15.1525L101.242 22.9393H99.6562L98.6469 19.558C98.3909 18.7139 98.1828 17.8747 98.0209 17.0422H97.9895C97.8392 17.8978 97.631 18.7353 97.3634 19.558L96.2914 22.9393H94.6874L92.3963 15.1525H94.1754L95.0558 18.8543C95.2689 19.7297 95.444 20.5639 95.5844 21.3535H95.6158C95.7446 20.7027 95.9577 19.8735 96.2584 18.8708L97.3634 15.1541H98.7741L99.833 18.7915C100.089 19.6785 100.297 20.5325 100.457 21.3552H100.505C100.623 20.554 100.799 19.7 101.034 18.7915L101.979 15.1541H103.678V15.1525Z" fill="white"/>
<path d="M112.653 22.9393H110.922V18.4793C110.922 17.105 110.4 16.4178 109.353 16.4178C108.839 16.4178 108.424 16.6061 108.102 16.9844C107.783 17.3627 107.621 17.8087 107.621 18.3191V22.9377H105.89V17.3775C105.89 16.6937 105.869 15.952 105.828 15.1492H107.349L107.43 16.3666H107.478C107.679 15.9883 107.98 15.6761 108.375 15.4267C108.844 15.136 109.369 14.989 109.944 14.989C110.671 14.989 111.275 15.2235 111.756 15.6943C112.354 16.2708 112.653 17.1314 112.653 18.2745V22.9393Z" fill="white"/>
<path d="M117.427 22.9393H115.697V11.5795H117.427V22.9393Z" fill="white"/>
<path d="M127.619 18.9815C127.619 20.1791 127.277 21.1603 126.593 21.93C125.876 22.7213 124.925 23.1161 123.74 23.1161C122.596 23.1161 121.685 22.7378 121.008 21.9779C120.331 21.2197 119.992 20.2633 119.992 19.1103C119.992 17.9045 120.341 16.915 121.041 16.1469C121.742 15.3788 122.683 14.9939 123.867 14.9939C125.012 14.9939 125.929 15.3722 126.626 16.1304C127.287 16.8671 127.619 17.8186 127.619 18.9815ZM125.822 19.0376C125.822 18.3191 125.666 17.7029 125.357 17.1892C124.996 16.5681 124.477 16.2576 123.806 16.2576C123.109 16.2576 122.581 16.5681 122.219 17.1892C121.908 17.7029 121.755 18.329 121.755 19.069C121.755 19.7876 121.91 20.4037 122.219 20.9174C122.594 21.5385 123.116 21.8491 123.79 21.8491C124.451 21.8491 124.968 21.5336 125.341 20.9009C125.663 20.3773 125.822 19.7562 125.822 19.0376Z" fill="white"/>
<path d="M135.997 22.9393H134.443L134.314 22.0423H134.266C133.734 22.7576 132.976 23.1161 131.991 23.1161C131.256 23.1161 130.661 22.8798 130.214 22.4107C129.807 21.9845 129.604 21.4543 129.604 20.8249C129.604 19.8735 130.001 19.1483 130.799 18.6461C131.595 18.144 132.715 17.8979 134.157 17.9094V17.7641C134.157 16.7383 133.618 16.2262 132.54 16.2262C131.772 16.2262 131.094 16.4194 130.51 16.8027L130.158 15.6662C130.881 15.2185 131.775 14.9939 132.829 14.9939C134.864 14.9939 135.885 16.0676 135.885 18.215V21.0826C135.885 21.8606 135.923 22.4801 135.997 22.9393ZM134.2 20.2633V19.0624C132.29 19.0294 131.335 19.553 131.335 20.6317C131.335 21.038 131.444 21.342 131.667 21.5451C131.89 21.7483 132.175 21.8491 132.513 21.8491C132.893 21.8491 133.248 21.7285 133.572 21.489C133.897 21.2478 134.097 20.9422 134.172 20.5672C134.19 20.483 134.2 20.3806 134.2 20.2633Z" fill="white"/>
<path d="M145.834 22.9393H144.297L144.217 21.6889H144.169C143.678 22.6403 142.842 23.1161 141.668 23.1161C140.729 23.1161 139.948 22.7477 139.329 22.011C138.709 21.2742 138.4 20.3178 138.4 19.1434C138.4 17.883 138.736 16.8621 139.41 16.0825C140.062 15.3557 140.862 14.9923 141.813 14.9923C142.859 14.9923 143.591 15.3441 144.007 16.0494H144.04V11.5795H145.773V20.8415C145.773 21.5997 145.792 22.2984 145.834 22.9393ZM144.04 19.6554V18.3571C144.04 18.1324 144.023 17.9507 143.992 17.812C143.894 17.3957 143.685 17.0455 143.366 16.763C143.044 16.4806 142.656 16.3385 142.208 16.3385C141.562 16.3385 141.057 16.5945 140.685 17.1083C140.317 17.622 140.13 18.2778 140.13 19.0789C140.13 19.8487 140.307 20.4731 140.662 20.9538C141.037 21.4659 141.542 21.7219 142.175 21.7219C142.743 21.7219 143.197 21.5088 143.543 21.081C143.876 20.6862 144.04 20.2105 144.04 19.6554Z" fill="white"/>
<path d="M160.639 18.9815C160.639 20.1791 160.297 21.1603 159.613 21.93C158.897 22.7213 157.948 23.1161 156.761 23.1161C155.619 23.1161 154.709 22.7378 154.029 21.9779C153.351 21.2197 153.013 20.2633 153.013 19.1103C153.013 17.9045 153.361 16.915 154.062 16.1469C154.762 15.3788 155.704 14.9939 156.891 14.9939C158.033 14.9939 158.953 15.3722 159.647 16.1304C160.307 16.8671 160.639 17.8186 160.639 18.9815ZM158.845 19.0376C158.845 18.3191 158.69 17.7029 158.381 17.1892C158.016 16.5681 157.501 16.2576 156.827 16.2576C156.133 16.2576 155.604 16.5681 155.239 17.1892C154.929 17.7029 154.775 18.329 154.775 19.069C154.775 19.7876 154.93 20.4037 155.239 20.9174C155.614 21.5385 156.136 21.8491 156.81 21.8491C157.471 21.8491 157.991 21.5336 158.365 20.9009C158.684 20.3773 158.845 19.7562 158.845 19.0376Z" fill="white"/>
<path d="M169.948 22.9393H168.218V18.4793C168.218 17.105 167.696 16.4178 166.647 16.4178C166.133 16.4178 165.719 16.6061 165.398 16.9844C165.078 17.3627 164.918 17.8087 164.918 18.3191V22.9377H163.185V17.3775C163.185 16.6937 163.165 15.952 163.124 15.1492H164.643L164.724 16.3666H164.772C164.975 15.9883 165.276 15.6761 165.669 15.4267C166.14 15.136 166.664 14.989 167.24 14.989C167.965 14.989 168.57 15.2235 169.051 15.6943C169.65 16.2708 169.948 17.1314 169.948 18.2745V22.9393Z" fill="white"/>
<path d="M181.598 16.4492H179.692V20.2319C179.692 21.1933 180.03 21.674 180.701 21.674C181.012 21.674 181.269 21.6475 181.472 21.593L181.517 22.9063C181.175 23.0351 180.726 23.0995 180.172 23.0995C179.489 23.0995 178.957 22.8914 178.572 22.4751C178.185 22.0589 177.994 21.3585 177.994 20.3756V16.4492H176.856V15.1525H177.994V13.7253L179.69 13.2132V15.1508H181.596V16.4492H181.598Z" fill="white"/>
<path d="M190.762 22.9393H189.03V18.5124C189.03 17.1165 188.508 16.4178 187.462 16.4178C186.659 16.4178 186.111 16.8225 185.81 17.6319C185.759 17.8021 185.729 18.0102 185.729 18.2547V22.9377H184V11.5795H185.729V16.2724H185.762C186.307 15.4184 187.089 14.9923 188.101 14.9923C188.818 14.9923 189.411 15.2268 189.882 15.6976C190.468 16.284 190.762 17.1562 190.762 18.3092V22.9393Z" fill="white"/>
<path d="M200.216 18.6776C200.216 18.9881 200.193 19.2491 200.152 19.4622H194.96C194.983 20.232 195.231 20.8184 195.711 21.2247C196.151 21.5881 196.717 21.7698 197.411 21.7698C198.179 21.7698 198.88 21.6476 199.511 21.4015L199.782 22.604C199.043 22.9245 198.174 23.0847 197.168 23.0847C195.962 23.0847 195.013 22.7296 194.325 22.0193C193.635 21.309 193.293 20.3558 193.293 19.1599C193.293 17.9854 193.612 17.0075 194.254 16.2279C194.925 15.3953 195.832 14.9791 196.977 14.9791C198.097 14.9791 198.947 15.3953 199.522 16.2279C199.986 16.8886 200.216 17.7063 200.216 18.6776ZM198.564 18.2299C198.577 17.7162 198.463 17.2735 198.229 16.9002C197.928 16.4195 197.471 16.1783 196.851 16.1783C196.286 16.1783 195.825 16.4129 195.474 16.8836C195.186 17.2586 195.016 17.7063 194.96 18.2299H198.564Z" fill="white"/>
</svg>
